# xmcd CD database file
#
# Track frame offsets:
#	150
#	14822
#	28562
#	45502
#	60843
#	75726
#	91344
#	113496
#	131074
#	146711
#	163216
#	178445
#	196941
#	212447
#
# Disc length: 3089 seconds
#
# Revision: 6
# Processed by: cddbd v1.5.2PL0 Copyright (c) Steve Scherf et al.
# Submitted via: CDex 1.51
#
DISCID=be0c0f0e
DTITLE=Us5 - In Control - (Dzordz and Gonzo - Studio)
DYEAR=2006
DGENRE=Pop
TTITLE0=In The Club
TTITLE1=Gone
TTITLE2=I Don`t Think So
TTITLE3=Bad Girl
TTITLE4=Let Me Know
TTITLE5=As Good As It Gets
TTITLE6=One Night Wirth You
TTITLE7=A Girl Like You
TTITLE8=What About
TTITLE9=I Want You Back
TTITLE10=Be My Girlfriend
TTITLE11=Baby You´re The One
TTITLE12=Mama
TTITLE13=Baby I Like
EXTD=in the club YEAR: 2006
EXTT0=
EXTT1=
EXTT2=
EXTT3=
EXTT4=
EXTT5=
EXTT6=
EXTT7=
EXTT8=
EXTT9=
EXTT10=
EXTT11=
EXTT12=
EXTT13=
PLAYORDER=
